# xmcd
#
# Track frame offsets: 
#        300
#        20914
#        37344
#        56354
#        84315
#        105199
#        126004
#        148171
#        165395
#        183384
#        212444
#        233273
#
# Disc length: 3298 seconds
#
# Revision: 0
# Processed by: cddbd v1.5.2PL0 Copyright (c) Steve Scherf et al.
# Submitted via: ExactAudioCopy v1.0b1
#
DISCID=960cde0c
DTITLE=Anne Haigis - Good Day For The Blues
DYEAR=2007
DGENRE=General Blues
TTITLE0=Can't Let Go
TTITLE1=Sweet Forgiveness
TTITLE2=Simple Man
TTITLE3=Love's Been Rough On Me
TTITLE4=Like A Rock
TTITLE5=Good Day For The Blues
TTITLE6=Top Of The World
TTITLE7=Chuck E's In Love
TTITLE8=When Loves Comes To Town
TTITLE9=You Got The Silver
TTITLE10=Rio Esperanza
TTITLE11=Maybe
EXTD=
EXTT0=
EXTT1=
EXTT2=
EXTT3=
EXTT4=
EXTT5=
EXTT6=
EXTT7=
EXTT8=
EXTT9=
EXTT10=
EXTT11=
PLAYORDER=
